<?xml version="1.0" encoding="utf-8"?>
<!-- Generator: Adobe Illustrator 19.2.1, SVG Export Plug-In . SVG Version: 6.00 Build 0)  -->
<svg version="1.1" id="Layer_1" xmlns="http://www.w3.org/2000/svg" xmlns:xlink="http://www.w3.org/1999/xlink" x="0px" y="0px"
	 viewBox="0 0 528.7 100" style="enable-background:new 0 0 528.7 100;" xml:space="preserve">
<style type="text/css">
	.st0{fill:#74AADB;}
	.st1{fill:#4E4E4E;}
	.st2{fill:#FFFFFF;}
	.st3{fill:#4F4F4F;}
</style>
<g>
	<circle class="st0" cx="51" cy="49.9" r="50"/>
	<g>
		<path class="st1" d="M111.7,64.8c2.6,1.7,6.3,2.9,10.3,2.9c5.9,0,9.4-3.1,9.4-7.6c0-4.1-2.4-6.6-8.4-8.8
			c-7.3-2.7-11.8-6.5-11.8-12.8c0-7,5.8-12.2,14.5-12.2c4.5,0,7.9,1.1,9.8,2.2l-1.6,4.7c-1.4-0.9-4.4-2.1-8.4-2.1
			c-6.1,0-8.4,3.7-8.4,6.7c0,4.2,2.7,6.3,8.9,8.6c7.6,2.9,11.4,6.6,11.4,13.2c0,6.9-5.1,13-15.6,13c-4.3,0-9-1.3-11.4-2.9
			L111.7,64.8z"/>
		<path class="st1" d="M151.8,31.9v7.7h8.4v4.5h-8.4v17.4c0,4,1.1,6.3,4.4,6.3c1.6,0,2.5-0.1,3.4-0.4l0.3,4.5
			c-1.1,0.4-2.9,0.8-5.2,0.8c-2.7,0-4.9-0.9-6.3-2.5c-1.6-1.8-2.3-4.7-2.3-8.4V44.1h-5v-4.5h5v-6L151.8,31.9z"/>
		<path class="st1" d="M193.7,63c0,3.4,0.1,6.3,0.3,8.8h-5.2l-0.3-5.3h-0.1c-1.5,2.6-4.9,6-10.6,6c-5.1,0-11.1-2.9-11.1-14.1V39.6
			h5.9v17.8c0,6.1,1.9,10.3,7.2,10.3c3.9,0,6.6-2.7,7.7-5.4c0.3-0.8,0.5-1.9,0.5-3V39.6h5.9V63H193.7z"/>
		<path class="st1" d="M231.1,24.6v38.9c0,2.9,0.1,6.1,0.3,8.3h-5.2l-0.3-5.6h-0.2c-1.7,3.6-5.6,6.3-10.8,6.3
			c-7.8,0-13.8-6.6-13.8-16.4c-0.1-10.7,6.6-17.2,14.4-17.2c5,0,8.2,2.3,9.7,4.9h0.1V24.6H231.1z M225.4,52.7c0-0.7-0.1-1.7-0.3-2.5
			c-0.9-3.7-4.1-6.7-8.4-6.7c-6.1,0-9.6,5.3-9.6,12.4c0,6.5,3.3,11.9,9.5,11.9c3.9,0,7.5-2.7,8.6-7c0.2-0.8,0.3-1.6,0.3-2.5v-5.6
			C225.5,52.7,225.4,52.7,225.4,52.7z"/>
		<path class="st1" d="M247.4,30.6c0,2-1.4,3.6-3.7,3.6c-2.1,0-3.5-1.6-3.5-3.6s1.5-3.7,3.7-3.7C246,26.9,247.4,28.5,247.4,30.6z
			 M240.9,71.8V39.6h5.9v32.2H240.9z"/>
		<path class="st1" d="M285.6,55.5c0,11.9-8.3,17.1-16,17.1c-8.6,0-15.4-6.4-15.4-16.6c0-10.7,7.1-17,16-17
			C279.4,39,285.6,45.7,285.6,55.5z M260.1,55.8c0,7,4,12.4,9.7,12.4c5.6,0,9.8-5.3,9.8-12.5c0-5.5-2.7-12.3-9.6-12.3
			C263.1,43.4,260.1,49.7,260.1,55.8z"/>
	</g>
	<g>
		<path class="st2" d="M68.1,65.9h5.4v4.2h-8.3L51.6,49.5h-7.3v16.3h7.2V70h-18v-4.2h6.1V29.7l-6.2-0.8v-4c2.3,0.5,4.4,0.9,6.9,0.9
			c3.8,0,7.8-0.9,11.6-0.9c7.5,0,14.4,3.4,14.4,11.7c0,6.4-3.8,10.5-9.8,12.2L68.1,65.9z M44.2,45.5l3.9,0.1
			c9.6,0.2,13.3-3.5,13.3-8.4c0-5.7-4.1-8-9.4-8c-2.5,0-5,0.2-7.8,0.5C44.2,29.7,44.2,45.5,44.2,45.5z"/>
	</g>
</g>
<g>
	<path class="st3" d="M307.2,49.6c0-13.9,7.4-22.8,18.6-22.8c5.1,0,9,2.5,11.3,5.2l-1.3,1.5c-2.4-2.8-5.8-4.7-9.9-4.7
		c-10.2,0-16.3,8-16.3,20.8c0,12.7,6.2,21,16.1,21c4.7,0,8.2-1.9,11.5-5.6l1.3,1.3c-3.3,3.9-7.2,6.3-13,6.3
		C314.5,72.6,307.2,63.5,307.2,49.6z"/>
	<path class="st3" d="M344.7,55.9c0-10.7,6.6-16.9,14.2-16.9c7.6,0,14.2,6.2,14.2,16.9c0,10.6-6.6,16.8-14.2,16.8
		C351.2,72.6,344.7,66.4,344.7,55.9z M370.9,55.9c0-8.8-5.2-15-12.1-15s-12.1,6.2-12.1,15c0,8.8,5.2,14.9,12.1,14.9
		S370.9,64.7,370.9,55.9z"/>
	<path class="st3" d="M383.1,39.8h1.7l0.3,5.1h0.1c3.3-3.4,6.7-5.9,11.1-5.9c6.6,0,9.6,3.9,9.6,12.2v20.6h-2V51.4
		c0-7.1-2.3-10.6-7.8-10.6c-4,0-7,2.1-11.1,6.4v24.5h-2V39.8z"/>
	<path class="st3" d="M418.4,39.8h1.7l0.3,5.1h0.1c3.3-3.4,6.7-5.9,11.1-5.9c6.6,0,9.6,3.9,9.6,12.2v20.6h-2V51.4
		c0-7.1-2.3-10.6-7.8-10.6c-4,0-7,2.1-11.1,6.4v24.5h-2V39.8z"/>
	<path class="st3" d="M450.8,55.9c0-10.5,6.7-16.9,13.8-16.9c7.4,0,12.1,5.2,12.1,14.7c0,0.7,0,1.3-0.1,2.1h-23.6
		c0,8.6,5,14.9,12.6,14.9c3.6,0,6.4-1.2,8.8-2.9l0.9,1.7c-2.4,1.5-5.1,3.1-9.9,3.1C457.4,72.6,450.8,66.3,450.8,55.9z M474.7,54
		c0-8.8-4-13.1-10.1-13.1c-5.8,0-11,5-11.7,13.1H474.7z"/>
	<path class="st3" d="M482.8,55.9c0-10.7,6.7-16.9,14.3-16.9c4.4,0,7.2,2,9.4,4l-1.3,1.5c-2.1-2-4.7-3.6-8-3.6
		c-6.8,0-12.2,6.2-12.2,15c0,8.8,4.8,14.9,12.2,14.9c3.6,0,6.7-1.7,9-3.9l1.2,1.5c-2.7,2.4-6,4.3-10.2,4.3
		C489,72.6,482.8,66.4,482.8,55.9z"/>
	<path class="st3" d="M515.5,63.4V41.6h-5.1V40l5.1-0.3l0.3-9.4h1.7v9.4h9.5v1.9h-9.5v22c0,4.2,0.9,7.1,5.6,7.1
		c1.2,0,2.9-0.5,4.2-1.1l0.7,1.7c-1.9,0.7-3.9,1.2-5,1.2C517.1,72.6,515.5,68.9,515.5,63.4z"/>
</g>
</svg>
