<?xml version="1.0" encoding="utf-8"?>
<!-- Generator: Adobe Illustrator 19.2.1, SVG Export Plug-In . SVG Version: 6.00 Build 0)  -->
<svg version="1.1" id="Layer_1" xmlns="http://www.w3.org/2000/svg" xmlns:xlink="http://www.w3.org/1999/xlink" x="0px" y="0px"
	 viewBox="0 0 50 150" style="enable-background:new 0 0 50 150;" xml:space="preserve">
<style type="text/css">
	.st0{fill:#7B7B7B;}
	.st1{fill:none;stroke:#7B7B7B;stroke-miterlimit:10;}
	.st2{fill:#FFFFFF;}
	.st3{fill:#FFFFFF;stroke:#7B7B7B;stroke-miterlimit:10;}
	.st4{fill:none;stroke:#FFFFFF;stroke-miterlimit:10;}
</style>
<circle class="st0" cx="19.5" cy="34.5" r="2.5"/>
<path class="st0" d="M36,31.5c0,1.4-1.1,2.5-2.5,2.5S31,31.9,31,30.5s1.1-1.5,2.5-1.5S36,30.1,36,31.5z"/>
<circle class="st0" cx="43.5" cy="22.5" r="2.5"/>
<circle class="st0" cx="6.5" cy="41.5" r="2.5"/>
<path class="st1" d="M19.5,34.5"/>
<path class="st1" d="M6.5,41.5"/>
<path class="st1" d="M23,34.5"/>
<path class="st1" d="M33.5,30.5"/>
<path class="st1" d="M33.5,33.5"/>
<line class="st1" x1="43.5" y1="22.5" x2="33.5" y2="32"/>
<line class="st1" x1="19.5" y1="34.5" x2="33.5" y2="31.5"/>
<line class="st1" x1="6.5" y1="41.5" x2="19.5" y2="34.5"/>
<line class="st1" x1="4.5" y1="19.5" x2="23" y2="19.5"/>
<line class="st1" x1="4.5" y1="16.5" x2="23" y2="16.5"/>
<line class="st1" x1="4.5" y1="13.5" x2="26" y2="13.5"/>
<circle class="st2" cx="19.5" cy="134.5" r="2.5"/>
<path class="st2" d="M36,131.5c0,1.4-1.1,2.5-2.5,2.5s-2.5-2.1-2.5-3.5s1.1-1.5,2.5-1.5S36,130.1,36,131.5z"/>
<circle class="st2" cx="43.5" cy="122.5" r="2.5"/>
<circle class="st2" cx="6.5" cy="141.5" r="2.5"/>
<path class="st3" d="M19.5,134.5"/>
<path class="st3" d="M6.5,141.5"/>
<path class="st3" d="M23,134.5"/>
<path class="st3" d="M33.5,130.5"/>
<path class="st3" d="M33.5,133.5"/>
<line class="st4" x1="43.5" y1="122.5" x2="33.5" y2="132"/>
<line class="st4" x1="19.5" y1="134.5" x2="33.5" y2="131.5"/>
<line class="st4" x1="6.5" y1="141.5" x2="19.5" y2="134.5"/>
<line class="st4" x1="4.5" y1="119.5" x2="23" y2="119.5"/>
<line class="st4" x1="4.5" y1="116.5" x2="23" y2="116.5"/>
<line class="st4" x1="4.5" y1="113.5" x2="26" y2="113.5"/>
</svg>
